<svg width="90" height="90" viewBox="0 0 90 90" fill="none" xmlns="http://www.w3.org/2000/svg">
<path d="M45.0146 16.5C34.0849 16.4881 24.1112 22.7278 19.3412 32.5616C14.5711 42.3954 15.845 54.091 22.6203 62.6672C29.3956 71.2435 40.4788 75.1896 51.1496 72.825C51.2663 73.8164 51.4594 74.7973 51.7271 75.759C46.7151 76.8508 41.5131 76.7119 36.5666 75.354C36.103 75.1682 35.5773 75.2253 35.1644 75.5064C34.7516 75.7875 34.5057 76.2556 34.5086 76.755V76.8C34.7261 84.939 43.9286 89.6475 44.3216 89.85C44.7471 90.0631 45.2486 90.0616 45.6729 89.8459C46.0972 89.6302 46.3939 89.2259 46.4726 88.7565C46.4846 88.686 47.6726 82.0065 52.8446 78.7875C56.0429 85.6521 62.9415 90.0296 70.5146 90C71.2462 89.9996 71.9773 89.9591 72.7046 89.8785C80.635 88.9821 87.2186 83.3436 89.3237 75.6453C91.4288 67.9471 88.6303 59.7431 82.2596 54.936C81.4784 54.3685 81.0113 53.4654 80.9996 52.5V13.815C81.078 8.78443 77.6396 4.37934 72.7406 3.234C69.6347 2.55952 66.3904 3.32667 63.9156 5.32077C61.4407 7.31487 60.0011 10.3217 59.9996 13.5V20.778C55.5062 17.9713 50.3125 16.4885 45.0146 16.5V16.5ZM44.0351 86.1765C42.0506 84.8475 38.8391 82.2405 37.8236 78.75C41.0446 79.431 44.3462 79.6502 47.6291 79.401C46.009 81.4091 44.789 83.7091 44.0351 86.1765V86.1765ZM19.5146 45C19.5303 30.9233 30.9378 19.5157 45.0146 19.5C50.4046 19.4889 55.6564 21.2053 59.9996 24.3975V52.5C59.9906 53.4569 59.5302 54.3534 58.7576 54.918C54.0694 58.4387 51.2314 63.8961 51.0416 69.756C43.4404 71.6298 35.3998 69.8992 29.2425 65.0643C23.0852 60.2294 19.497 52.8287 19.5146 45V45ZM62.9996 52.5V13.5C62.9986 11.746 63.6133 10.0472 64.7366 8.7C66.1505 6.98332 68.2605 5.99218 70.4846 6C71.036 6.00093 71.5858 6.05822 72.1256 6.171C75.6364 7.02231 78.0809 10.2033 77.9996 13.815V52.5C78.0077 54.4052 78.9159 56.1944 80.4491 57.3255C86.1068 61.6024 88.3985 69.0165 86.1409 75.74C83.8833 82.4636 77.5816 86.9922 70.4892 86.9879C63.3967 86.9836 57.1005 82.4474 54.851 75.7211C52.6015 68.9949 54.9021 61.5836 60.5651 57.3135C62.0927 56.1848 62.9957 54.3994 62.9996 52.5V52.5Z" fill="#FF8401"/>
<path d="M37.5804 14.3865C42.8015 13.1282 48.2568 13.2175 53.4339 14.646C53.8975 14.8318 54.4232 14.7747 54.8361 14.4936C55.2489 14.2125 55.4948 13.7444 55.4919 13.245V13.2C55.2744 5.06099 46.0719 0.352492 45.6789 0.149992C45.2533 -0.0631152 44.7518 -0.0615883 44.3276 0.154106C43.9033 0.369801 43.6065 0.774062 43.5279 1.24349C43.5159 1.31699 42.2484 8.55749 36.5199 11.5935C35.8531 11.9491 35.555 12.7453 35.8243 13.4515C36.0935 14.1576 36.8461 14.5531 37.5804 14.3745V14.3865ZM45.9639 3.82349C47.9484 5.15249 51.1599 7.75949 52.1754 11.25C49.8187 10.7504 47.416 10.499 45.0069 10.5C44.1239 10.5 43.2449 10.533 42.3699 10.599C43.9899 8.59093 45.2099 6.29092 45.9639 3.82349V3.82349Z" fill="#FF8401"/>
<path d="M15.3895 27.3825C15.1693 28.1056 15.5215 28.8796 16.2113 29.1885C16.9012 29.4975 17.7132 29.2448 18.106 28.599C20.9045 24.0122 24.8286 20.2167 29.506 17.5725C29.9653 17.3759 30.2965 16.9636 30.3895 16.4727C30.4825 15.9819 30.325 15.4769 29.9695 15.126L29.935 15.093C24.0205 9.49798 14.188 12.6735 13.774 12.8115C13.3222 12.9613 12.9683 13.3166 12.8204 13.769C12.6725 14.2214 12.748 14.7172 13.024 15.105C13.066 15.165 17.281 21.219 15.3895 27.3825V27.3825ZM26.209 16.0605C24.1889 17.3736 22.3122 18.8949 20.6095 20.5995C19.9835 21.2235 19.3835 21.8685 18.8095 22.5345C18.5346 19.9692 17.7709 17.4804 16.5595 15.2025C18.8995 14.7375 23.0245 14.313 26.209 16.0605Z" fill="#FF8401"/>
<path d="M1.25385 46.4715C1.32585 46.485 8.56635 47.751 11.6038 53.4795C11.8639 53.9706 12.3742 54.2776 12.9298 54.2775C13.1127 54.2773 13.2941 54.2443 13.4653 54.18C14.1722 53.9098 14.5671 53.1553 14.3863 52.4205C13.1216 47.199 13.2114 41.741 14.6473 36.564C14.836 36.0928 14.7736 35.5582 14.4814 35.1431C14.1893 34.7281 13.7071 34.4889 13.1998 34.5075C5.06085 34.7235 0.349345 43.929 0.149845 44.3205C-0.0632784 44.7463 -0.0615685 45.248 0.154453 45.6724C0.370474 46.0967 0.775143 46.3933 1.24485 46.4715H1.25385ZM11.2498 37.8225C10.7498 40.1822 10.4985 42.5879 10.4998 45C10.4998 45.883 10.5328 46.762 10.5988 47.637C8.59152 46.0153 6.29206 44.7933 3.82485 44.037C5.15235 42.0525 7.75935 38.8395 11.2498 37.8225Z" fill="#FF8401"/>
<path d="M13.7712 77.1795C14.2236 77.3266 14.719 77.2503 15.1062 76.974C15.1677 76.932 21.1737 72.7065 27.3837 74.61C28.1064 74.8285 28.8788 74.4758 29.1871 73.7866C29.4953 73.0974 29.2433 72.2866 28.5987 71.8935C24.0146 69.0974 20.2202 65.177 17.5752 60.504C17.3837 60.0504 16.9818 59.7197 16.4998 59.6191C16.0178 59.5185 15.5172 59.6609 15.1602 60C15.1362 60.0225 15.1122 60.0465 15.0912 60.069C9.49924 65.979 12.6732 75.8085 12.8112 76.224C12.961 76.6771 13.3175 77.0318 13.7712 77.1795V77.1795ZM16.0497 63.7815C17.3648 65.8045 18.8881 67.6843 20.5947 69.39C21.2197 70.014 21.8647 70.614 22.5297 71.19C19.9641 71.4632 17.475 72.2271 15.1977 73.44C14.7342 71.085 14.2992 66.9555 16.0497 63.7815Z" fill="#FF8401"/>
<path d="M57.2185 72.96C58.1996 78.3832 62.3952 82.656 67.7995 83.736C68.6805 83.9094 69.5761 83.9978 70.474 84C76.8542 84.0182 82.3746 79.5639 83.7053 73.324C85.036 67.0841 81.8131 60.7652 75.9805 58.179C75.4062 57.9533 75.0208 57.4082 74.9995 56.7915V31.6605C75.0282 29.4216 73.4483 27.4841 71.2495 27.0615C69.9432 26.8407 68.606 27.2067 67.5942 28.0621C66.5825 28.9174 65.9991 30.1751 65.9995 31.5V56.7885C65.978 57.4055 65.5919 57.9508 65.017 58.176C59.3228 60.7196 56.1027 66.824 57.2185 72.96V72.96ZM66.235 60.9165C67.8905 60.2067 68.9735 58.5895 68.9995 56.7885V31.5C68.9995 30.6716 69.6711 30 70.4995 30C70.5869 30.0003 70.6742 30.0073 70.7605 30.021C71.51 30.2047 72.0274 30.8894 71.9995 31.6605V56.7915C72.026 58.5912 73.1084 60.207 74.7625 60.9165C79.2944 62.9302 81.7994 67.84 80.7701 72.6911C79.7408 77.5422 75.4579 81.0118 70.4988 81.0118C65.5397 81.0118 61.2567 77.5422 60.2274 72.6911C59.1981 67.84 61.7032 62.9302 66.235 60.9165V60.9165Z" fill="#FF8401"/>
<path d="M64.5 72C65.3284 72 66 71.3284 66 70.5C66 68.0147 68.0147 66 70.5 66C71.3284 66 72 65.3284 72 64.5C72 63.6716 71.3284 63 70.5 63C66.3599 63.005 63.005 66.3599 63 70.5C63 71.3284 63.6716 72 64.5 72Z" fill="#FF8401"/>
</svg>
