<svg width="90" height="70" viewBox="0 0 90 70" fill="none" xmlns="http://www.w3.org/2000/svg">
<path d="M85.3719 37.9982H82.6397C80.0874 37.9982 78.0117 40.0739 78.0117 42.6263V48.4893H63.0244V39.1687C68.4888 37.4047 71.9523 30.0984 71.9523 20.0135C71.9523 9.1702 67.9522 1.52969 61.761 0.548029C61.6831 0.53604 61.6051 0.530045 61.5257 0.530045H1.57667C0.85578 0.530045 0.238304 1.04411 0.104918 1.753H0.103419C0.0734446 1.91337 -0.60398 5.72163 1.96634 8.818C3.67189 10.8728 6.34261 12.0687 9.89759 12.4074C9.36255 14.7904 9.0703 17.3682 9.0703 20.0135C9.0703 30.9392 13.6789 39.4969 19.5614 39.4969H51.0346V58.9309C51.0346 61.4368 53.0729 63.4765 55.5803 63.4765H58.4803C60.4406 63.4765 62.0997 62.2221 62.7367 60.4791H78.0132V64.8434C78.0132 67.3957 80.0889 69.4714 82.6412 69.4714H85.3734C87.9258 69.4714 90.0015 67.3957 90.0015 64.8434V42.6263C90 40.0739 87.9243 37.9982 85.3719 37.9982ZM61.3983 3.5275C64.9908 4.18094 68.5742 9.0473 68.9189 18.5148H38.1651L32.6093 12.959C32.3275 12.6772 31.9468 12.5199 31.5497 12.5199H28.5522H28.0292H22.0568H20.4531C20.4396 12.4989 20.4231 12.4779 20.4097 12.4569C20.2568 12.2111 20.0859 11.9638 19.9001 11.715C19.7997 11.5802 19.6873 11.4453 19.5779 11.3104C19.5284 11.2489 19.4819 11.1875 19.431 11.126C19.371 11.0556 19.3096 10.9852 19.2466 10.9147C19.1807 10.8398 19.1267 10.7663 19.0593 10.6914C19.0338 10.6629 19.0009 10.6434 18.9724 10.6165C18.8045 10.4351 18.6292 10.2538 18.4448 10.0709C18.3264 9.95403 18.2065 9.83863 18.0836 9.72323C17.7854 9.44447 17.4707 9.1642 17.1349 8.88394C16.8652 8.65764 16.5834 8.43732 16.2987 8.21701C16.1683 8.11659 16.0394 8.01618 15.9045 7.91577C13.6369 6.22071 11.0111 4.71748 8.64166 3.5275H61.3983ZM21.0586 18.0142C21.0586 21.1465 20.1594 23.2163 19.5599 24.1185C18.9604 23.2148 18.0612 21.1465 18.0612 18.0142C18.0612 16.8062 18.1915 15.7826 18.3759 14.9373C18.3819 14.9463 18.3939 14.9493 18.4014 14.9568C18.5273 15.1111 18.6801 15.2325 18.854 15.3255C18.8914 15.345 18.9274 15.3599 18.9679 15.3764C19.1537 15.4574 19.3501 15.5143 19.5614 15.5143H20.8533C20.9897 16.3146 21.0586 17.1509 21.0586 18.0142ZM4.29236 6.9296C3.56997 6.06933 3.24924 5.10416 3.10687 4.27236C5.36694 5.24354 8.36589 6.67932 11.131 8.3429C10.9842 8.71159 10.8493 9.09376 10.7174 9.48044C7.71395 9.2886 5.55728 8.43283 4.29236 6.9296ZM12.0662 20.0135C12.0662 16.3836 12.6388 12.902 13.6939 10.0155C13.7238 10.0365 13.7538 10.0574 13.7838 10.0784C14.7085 10.7454 15.4818 11.3958 16.1458 12.0313C15.6197 13.3217 15.0622 15.324 15.0622 18.0142C15.0622 23.0709 17.1634 27.5056 19.5584 27.5056C21.9533 27.5056 24.0546 23.0709 24.0546 18.0142C24.0546 17.1584 23.9826 16.3281 23.8687 15.5158H26.7463C26.9486 16.9965 27.052 18.5043 27.052 20.012C27.052 29.2966 23.0234 36.498 19.5584 36.498C16.0169 36.4995 12.0662 29.7282 12.0662 20.0135ZM25.0647 36.4995C25.1067 36.45 25.1441 36.3871 25.1861 36.3361C25.4724 35.9899 25.7496 35.6182 26.0164 35.224C26.0614 35.1581 26.1078 35.1012 26.1528 35.0337C26.46 34.5646 26.7508 34.0595 27.0295 33.5305C27.1045 33.3896 27.1719 33.2382 27.2438 33.0929C27.4447 32.6867 27.6365 32.2686 27.8194 31.8339C27.8973 31.6481 27.9737 31.4608 28.0487 31.2704C28.227 30.8148 28.3919 30.3442 28.5492 29.8616C28.6002 29.7027 28.6571 29.5499 28.7051 29.3895C28.9014 28.7451 29.0783 28.0826 29.2357 27.3992C29.2671 27.2628 29.2896 27.1219 29.3196 26.9856C29.438 26.4295 29.5444 25.863 29.6358 25.2845C29.6718 25.0522 29.7033 24.8184 29.7362 24.5846C29.8067 24.0615 29.8651 23.531 29.9116 22.9944C29.9311 22.7666 29.955 22.5403 29.97 22.3095C30.021 21.5542 30.054 20.7898 30.054 20.0135V15.5173H30.9322L36.488 21.0731C36.7697 21.3548 37.1504 21.5122 37.5476 21.5122H68.9219C68.5772 30.9797 64.9938 35.846 61.4013 36.4995H51.0361H25.0647V36.4995ZM58.4788 60.4791H55.5788C54.726 60.4791 54.0306 59.7852 54.0306 58.9309V39.4969H60.0255V48.4893V58.9309C60.0255 59.7837 59.3316 60.4791 58.4788 60.4791ZM63.0229 57.4816V51.4867H78.0102V57.4816H63.0229ZM87.0025 64.8419C87.0025 65.7411 86.2712 66.4725 85.3719 66.4725H82.6397C81.7405 66.4725 81.0091 65.7411 81.0091 64.8419V60.4776V48.4878V42.6248C81.0091 41.7255 81.7405 40.9941 82.6397 40.9941H85.3719C86.2712 40.9941 87.0025 41.7255 87.0025 42.6248V64.8419Z" fill="#FF8401"/>
<path d="M48.0358 32.0033C48.8636 32.0033 49.5346 31.3323 49.5346 30.5046C49.5346 29.6768 48.8636 29.0058 48.0358 29.0058C47.2081 29.0058 46.5371 29.6768 46.5371 30.5046C46.5371 31.3323 47.2081 32.0033 48.0358 32.0033Z" fill="#FF8401"/>
<path d="M42.0407 32.0033C42.8684 32.0033 43.5394 31.3323 43.5394 30.5046C43.5394 29.6768 42.8684 29.0058 42.0407 29.0058C41.213 29.0058 40.542 29.6768 40.542 30.5046C40.542 31.3323 41.213 32.0033 42.0407 32.0033Z" fill="#FF8401"/>
<path d="M36.0456 32.0033C36.8733 32.0033 37.5443 31.3323 37.5443 30.5046C37.5443 29.6768 36.8733 29.0058 36.0456 29.0058C35.2179 29.0058 34.5469 29.6768 34.5469 30.5046C34.5469 31.3323 35.2179 32.0033 36.0456 32.0033Z" fill="#FF8401"/>
</svg>
