<svg width="90" height="90" viewBox="0 0 90 90" fill="none" xmlns="http://www.w3.org/2000/svg">
<path d="M34.5451 64.4999H14.9999V43.5001H44.6699C45.4983 43.5001 46.1698 42.8284 46.1698 42.0001C46.1698 41.1717 45.4983 40.5002 44.6699 40.5002H13.5V37.5001H48.0001C48.8285 37.5001 49.5 36.8285 49.5 36.0002C49.5 35.1717 48.8285 34.5002 48.0001 34.5002H13.5C11.8431 34.5002 10.4999 35.8434 10.4999 37.5003V40.5C10.5031 41.567 11.0747 42.5514 11.9999 43.0829V64.4999H7.49988C6.67143 64.4999 5.99994 63.8285 5.99994 63V34.2241C7.7915 33.5907 8.99209 31.9003 9 30.0001C9 18.402 18.402 9 30.0001 9C41.5981 9 51.0001 18.402 51.0001 30.0001C51.0001 32.4854 53.0149 34.5001 55.5001 34.5001C57.9853 34.5001 60.0001 32.4853 60.0001 30.0001C59.9999 13.4314 46.5685 0 30.0001 0C13.4316 0 0 13.4314 0 30.0001C0.00791016 31.9003 1.2085 33.5907 3.00006 34.2241V63C3.00006 65.4852 5.01486 67.5 7.50006 67.5H34.5451C35.3735 67.5 36.045 66.8283 36.045 66.0001C36.045 65.1716 35.3735 64.4999 34.5451 64.4999V64.4999ZM30.0001 3.00006C44.9046 3.01746 56.9827 15.0956 57.0001 30.0001C57.0001 30.8285 56.3284 31.5 55.5001 31.5C54.6717 31.5 54.0002 30.8283 54.0002 30.0001C54.0002 16.7453 43.255 6.00012 30.0002 6.00012C16.7454 6.00012 5.99994 16.7451 5.99994 30.0001C5.99994 30.8285 5.32828 31.5 4.5 31.5C3.67172 31.5 3.00006 30.8283 3.00006 30.0001C3.01729 15.0956 15.0956 3.01729 30.0001 3.00006V3.00006Z" fill="#FF8401"/>
<path d="M19.4999 46.4999C18.6715 46.4999 18 47.1714 18 47.9999C18 48.8283 18.6717 49.4998 19.4999 49.4998H39.4499C40.2783 49.4998 40.9498 48.8283 40.9498 47.9999C40.9498 47.1714 40.2783 46.4999 39.4499 46.4999H19.4999Z" fill="#FF8401"/>
<path d="M36.3899 52.5001H19.4999C18.6715 52.5001 18 53.1715 18 54C18 54.8285 18.6717 55.4999 19.4999 55.4999H36.3899C37.2183 55.4999 37.8898 54.8285 37.8898 54C37.8898 53.1715 37.2183 52.5001 36.3899 52.5001Z" fill="#FF8401"/>
<path d="M34.83 58.5H19.4999C18.6715 58.5 18 59.1715 18 59.9999C18 60.8284 18.6717 61.4999 19.4999 61.4999H34.83C35.6585 61.4999 36.3299 60.8282 36.3299 59.9999C36.3299 59.1717 35.6585 58.5 34.83 58.5Z" fill="#FF8401"/>
<path d="M24.0001 14.9999C22.3431 14.9999 21 16.3431 21 18V28.4999C21 30.1569 22.3431 31.5 24.0001 31.5H36.0001C37.657 31.5 39.0002 30.1569 39.0002 28.4999V18C39.0002 16.3431 37.657 14.9999 36.0001 14.9999H24.0001ZM24.0001 18H28.5001V28.4999H24.0001V18ZM31.5001 28.4999V18H36.0001V28.4999H31.5001Z" fill="#FF8401"/>
<path d="M64.5001 39.0001C50.4168 39.0001 39 50.4169 39 64.5001C39 78.5834 50.4168 90 64.5001 90C78.5833 90 90.0001 78.5832 90.0001 64.4999C89.9845 50.4232 78.5768 39.0157 64.5001 39.0001ZM64.5001 86.9999C52.0737 86.9999 42.0001 76.9263 42.0001 64.4999C42.0001 52.0736 52.0737 41.9999 64.5001 41.9999C76.9264 41.9999 87.0001 52.0736 87.0001 64.4999C86.986 76.9206 76.9208 86.9859 64.5001 86.9999Z" fill="#FF8401"/>
<path d="M63.0004 70.5001H52.8333C53.1548 69.815 53.6875 69.251 54.3528 68.8906L59.3478 66.1906C60.7226 65.4903 61.8116 64.3345 62.4287 62.9206C63.7395 59.7642 62.3431 56.1345 59.2546 54.6706C57.1136 53.6458 54.5948 53.8014 52.5962 55.0816C50.6658 56.3201 49.4989 58.4564 49.5002 60.75C49.5002 61.5785 50.1718 62.2499 51.0001 62.2499C51.8286 62.2499 52.5001 61.5783 52.5001 60.75C52.5018 59.4754 53.151 58.2889 54.2236 57.6C55.3707 56.8846 56.8056 56.8109 58.0201 57.4051C58.8197 57.8027 59.4332 58.4963 59.7301 59.3385C60.0205 60.1291 59.9941 61.0014 59.6566 61.7731C59.2956 62.5454 58.6832 63.1726 57.9196 63.5521L52.9246 66.2521C50.8136 67.3933 49.4986 69.6004 49.5 72.0002C49.5 72.8286 50.1717 73.5001 50.9999 73.5001H63.0004C63.8288 73.5001 64.5003 72.8285 64.5003 72.0002C64.5003 71.1716 63.8288 70.5001 63.0004 70.5001V70.5001Z" fill="#FF8401"/>
<path d="M76.4998 64.4999V55.4999C76.4991 54.8726 76.1081 54.312 75.5196 54.0946C74.9313 53.8771 74.2696 54.0489 73.8611 54.5249L64.8611 65.0248C64.4807 65.4696 64.3937 66.095 64.6382 66.6267C64.8827 67.1585 65.4143 67.4993 65.9995 67.4998H73.4995V71.9998C73.4995 72.8283 74.171 73.4998 74.9995 73.4998C75.8279 73.4998 76.4994 72.8281 76.4994 71.9998V67.5H79.4995C80.3279 67.5 80.9994 66.8283 80.9994 66.0001C80.9994 65.1716 80.3279 64.5001 79.4995 64.5001H76.4998V64.4999ZM73.4997 64.4999H69.2607L73.4997 59.5499V64.4999Z" fill="#FF8401"/>
</svg>
