<svg width="78" height="90" viewBox="0 0 78 90" fill="none" xmlns="http://www.w3.org/2000/svg">
<path d="M75.5997 11.7675C53.0787 6.8085 42.9672 1.95 40.4052 0.570004C39.5278 0.0974335 38.4717 0.0974335 37.5942 0.570004C35.0322 1.95 24.9207 6.8085 2.39974 11.7675C0.989497 12.0784 -0.0016549 13.3464 0.0372384 14.79L1.38724 58.59C1.40074 58.8405 3.24424 83.718 38.4507 89.9295C38.6314 89.962 38.8147 89.978 38.9982 89.9775C39.1788 89.9783 39.3591 89.9622 39.5367 89.9295C74.7462 83.718 76.5867 58.8405 76.6062 58.5495L77.9562 14.7915C77.9965 13.3492 77.0082 12.081 75.5997 11.7675V11.7675ZM73.6197 58.4085C73.5612 59.337 71.8047 81.189 39.0162 86.9745H38.9847C6.20074 81.189 4.44424 59.337 4.38874 58.4535L3.04924 14.7C25.9497 9.657 36.3627 4.6335 38.9862 3.2145C41.6367 4.6335 52.0572 9.6645 74.9622 14.697L73.6197 58.4085Z" fill="#FF8401"/>
<path d="M7.30964 16.809C6.61327 16.9709 6.12798 17.6019 6.15014 18.3165L7.38914 58.308C7.59314 60.36 10.2031 78.507 38.7241 83.877C38.8156 83.8949 38.9085 83.904 39.0016 83.904C39.0948 83.9039 39.1877 83.8948 39.2791 83.877C68.4001 78.411 70.5346 59.1495 70.6186 58.2375L71.8502 18.3165C71.8723 17.6019 71.387 16.9709 70.6906 16.809C53.3806 12.777 43.8076 8.86649 39.6421 6.89999C39.2354 6.70944 38.7649 6.70944 38.3581 6.89999C34.2001 8.86649 24.6181 12.777 7.30964 16.809V16.809ZM68.8096 19.449L67.6246 58.05C67.5571 58.7745 65.6641 75.759 39.0016 80.877C12.8896 75.849 10.5541 59.829 10.3816 58.113L9.18164 19.449C24.5101 15.813 33.7741 12.315 39.0001 9.89999C44.2261 12.3135 53.4886 15.813 68.8141 19.449H68.8096Z" fill="#FF8401"/>
<path d="M56.9995 48C56.1711 48 55.4995 48.6716 55.4995 49.5V52.6125L53.1265 53.949C52.5328 54.2839 52.2395 54.9769 52.4125 55.6363C52.5856 56.2956 53.1814 56.7553 53.863 56.7555C54.1202 56.7559 54.373 56.6892 54.5965 56.562L57.7345 54.7965C58.2067 54.5311 58.4991 54.0317 58.4995 53.49V49.5C58.4995 48.6716 57.8279 48 56.9995 48V48Z" fill="#FF8401"/>
<path d="M14.265 58.3065L38.265 71.8065C38.7214 72.0631 39.2786 72.0631 39.735 71.8065L63.735 58.3065C64.2072 58.0411 64.4996 57.5417 64.5 57V30C64.4996 29.4583 64.2072 28.9589 63.735 28.6935L39.735 15.1935C39.2786 14.937 38.7214 14.937 38.265 15.1935L14.265 28.6935C13.7928 28.9589 13.5004 29.4583 13.5 30V57C13.5004 57.5417 13.7928 58.0411 14.265 58.3065V58.3065ZM16.5 32.5635L21 35.1V51C20.9999 51.5533 21.3045 52.0618 21.7924 52.3228C22.2802 52.5839 22.8722 52.5551 23.3325 52.248L26.523 50.121L30.2145 56.271C30.4853 56.7229 30.9732 56.9996 31.5 57C31.6353 56.9999 31.77 56.9817 31.9005 56.946C32.5504 56.766 33.0002 56.1744 33 55.5V41.85L37.5 44.382V67.932L16.5 56.1225V32.5635ZM52.62 25.8825L31.5435 37.5825L25.746 34.3215L46.809 22.611L52.62 25.8825ZM59.9415 30L39 41.7795L34.6125 39.312L55.689 27.612L59.9415 30ZM24 36.783L30 40.158V50.085L28.2855 47.2275C28.0743 46.876 27.7284 46.6263 27.3283 46.5364C26.9282 46.4466 26.5087 46.5245 26.1675 46.752L24 48.198V36.783ZM40.5 67.935V44.376L61.5 32.5635V56.1225L40.5 67.935ZM39 18.2205L43.74 20.8875L22.6755 32.598L18.0585 30L39 18.2205Z" fill="#FF8401"/>
</svg>
