<svg width="90" height="90" viewBox="0 0 90 90" fill="none" xmlns="http://www.w3.org/2000/svg">
<path d="M84.0001 41.0251V31.5C83.9528 17.6208 74.4195 5.57402 60.9226 2.33842C60.1392 0.90211 58.6361 0.00597656 57.0001 0H32.9999C31.3639 0.00597656 29.8607 0.90211 29.0774 2.33842C15.5805 5.57402 6.04723 17.6208 5.99994 31.5V41.0251C2.40768 42.2951 0.00439453 45.6898 0 49.5V58.5C0.00421875 62.3285 2.43 65.7352 6.04652 66.9915C6.40213 76.3903 13.6248 84.0922 22.9815 85.05C26.3909 85.323 30.3465 85.4685 34.7099 85.5C35.3921 88.1422 37.7712 89.9912 40.5 90H50.9999C54.3136 90 56.9999 87.3137 56.9999 84.0001C56.9999 80.6864 54.3136 78.0001 50.9999 78.0001H40.5C37.7764 78.0105 35.4016 79.8539 34.7159 82.4896C30.432 82.4655 26.5544 82.3231 23.2214 82.0561C15.6048 81.2651 9.64617 75.1359 9.07049 67.5002H12.276C13.0032 69.5651 15.1138 70.8042 17.2714 70.4333C19.4289 70.0624 21.0043 68.1894 21.0001 66.0002V41.9999C21.0001 39.5146 18.9853 37.4999 16.5001 37.4999C15.9878 37.5049 15.4805 37.5982 15.0001 37.7759V31.5C15.0696 22.0449 21.3984 13.7812 30.5086 11.25C31.2463 11.7415 32.1137 12.0025 33.0001 12.0001H57.0001C57.8865 12.0025 58.7538 11.7415 59.4916 11.25C68.602 13.7812 74.9306 22.0449 75.0001 31.5V37.7759C74.5196 37.5982 74.0122 37.5049 73.5001 37.4999C71.0149 37.4999 69.0001 39.5147 69.0001 41.9999V65.9999C68.9959 68.1891 70.5714 70.062 72.7288 70.4329C74.8863 70.8038 76.9968 69.5647 77.7241 67.4998H81C85.9685 67.4949 89.9951 63.4683 90 58.4998V49.4998C89.9956 45.6898 87.5923 42.2951 84.0001 41.0251V41.0251ZM40.5 81V82.4999C40.5 83.3284 41.1717 83.9999 41.9999 83.9999C42.8284 83.9999 43.4999 83.3282 43.4999 82.4999V81H47.9999V82.4999C47.9999 83.3284 48.6714 83.9999 49.4998 83.9999C50.3283 83.9999 50.9998 83.3282 50.9998 82.4999V81C52.6567 81 53.9998 82.3431 53.9998 84.0001C53.9998 85.657 52.6567 87.0001 50.9998 87.0001H40.5C38.8431 87.0001 37.4999 85.657 37.4999 84.0001C37.4999 82.3431 38.8431 81 40.5 81ZM3.00006 58.5V49.5C3.00006 46.1863 5.68635 43.5001 9 43.5001H12.0001V64.5001H9C5.68635 64.4999 3.00006 61.8137 3.00006 58.5ZM16.5001 40.5C17.3285 40.5 18 41.1717 18 41.9999V65.9999C18 66.8283 17.3283 67.4998 16.5001 67.4998C15.6716 67.4998 15.0001 66.8282 15.0001 65.9999V41.9999C14.9999 41.1717 15.6716 40.5 16.5001 40.5V40.5ZM12.0001 31.5V40.5H9V31.5C9.04061 19.4943 16.9759 8.94656 28.4999 5.58V7.50006C28.5056 7.88713 28.5609 8.27174 28.665 8.64457C18.7119 11.8021 11.963 21.0581 12.0001 31.5ZM58.5 7.50006C58.5 8.32852 57.8285 9 57.0001 9H32.9999C32.1715 9 31.5 8.32834 31.5 7.50006V4.5C31.5 3.67154 32.1717 3.00006 32.9999 3.00006H56.9999C57.8283 3.00006 58.4998 3.67172 58.4998 4.5V7.50006H58.5ZM61.335 8.64457C61.4391 8.27174 61.4944 7.88713 61.5001 7.50006V5.58C73.0241 8.94656 80.9594 19.4943 81 31.5V40.5H77.9999V31.5C78.037 21.0581 71.2881 11.8021 61.335 8.64457V8.64457ZM73.4999 67.5C72.6715 67.5 72 66.8283 72 66.0001V41.9999C72 41.1715 72.6715 40.5 73.4999 40.5C74.3284 40.5 74.9999 41.1717 74.9999 41.9999V65.9999C75.0001 66.8285 74.3284 67.5 73.4999 67.5ZM86.9999 58.5C86.9999 61.8137 84.3137 64.4999 81 64.4999H77.9999V43.5001H81C84.3137 43.5001 86.9999 46.1863 86.9999 49.5V58.5Z" fill="#FF8401"/>
<path d="M45.0001 32.9999C33.402 32.9999 24 42.402 24 54C24 65.598 33.402 75.0001 45.0001 75.0001C56.5981 75.0001 66.0001 65.598 66.0001 54C65.9876 42.4072 56.5928 33.0124 45.0001 32.9999ZM45.0001 72C35.0589 72 27.0001 63.9411 27.0001 54C27.0001 44.0589 35.0589 36 45.0001 36C54.9412 36 63.0001 44.0589 63.0001 54C62.9893 63.9367 54.9368 71.9893 45.0001 72V72Z" fill="#FF8401"/>
<path d="M46.4999 53.379V40.5C46.4999 39.6715 45.8282 39.0001 44.9999 39.0001C44.1715 39.0001 43.5 39.6715 43.5 40.5V54C43.5 54.3978 43.6582 54.7792 43.9395 55.0605L51.4395 62.5605C52.028 63.129 52.9637 63.1209 53.5422 62.5423C54.1209 61.9636 54.129 61.0281 53.5605 60.4396L46.4999 53.379Z" fill="#FF8401"/>
</svg>
