<svg width="90" height="90" viewBox="0 0 90 90" fill="none" xmlns="http://www.w3.org/2000/svg">
<path d="M16.5 27H9C7.34315 27 6 28.3431 6 30V34.5C6 36.1569 7.34315 37.5 9 37.5H16.5C18.1569 37.5 19.5 36.1569 19.5 34.5V30C19.5 28.3431 18.1569 27 16.5 27ZM9 34.5V30H16.5V34.5H9Z" fill="#FF8401"/>
<path d="M33 27H25.5C23.8431 27 22.5 28.3431 22.5 30V34.5C22.5 36.1569 23.8431 37.5 25.5 37.5H33C34.6569 37.5 36 36.1569 36 34.5V30C36 28.3431 34.6569 27 33 27ZM25.5 34.5V30H33V34.5H25.5Z" fill="#FF8401"/>
<path d="M42 37.5H49.5C51.1568 37.5 52.5 36.1569 52.5 34.5V30C52.5 28.3431 51.1568 27 49.5 27H42C40.3431 27 39 28.3431 39 30V34.5C39 36.1569 40.3431 37.5 42 37.5ZM42 30H49.5V34.5H42V30Z" fill="#FF8401"/>
<path d="M42 51H49.5C51.1568 51 52.5 49.6569 52.5 48V43.5C52.5 41.8431 51.1568 40.5 49.5 40.5H42C40.3431 40.5 39 41.8431 39 43.5V48C39 49.6569 40.3431 51 42 51ZM42 43.5H49.5V48H42V43.5Z" fill="#FF8401"/>
<path d="M58.5 37.5H66C67.6569 37.5 69 36.1569 69 34.5V30C69 28.3431 67.6569 27 66 27H58.5C56.8431 27 55.5 28.3431 55.5 30V34.5C55.5 36.1569 56.8431 37.5 58.5 37.5ZM58.5 30H66V34.5H58.5V30Z" fill="#FF8401"/>
<path d="M16.5 40.5H9C7.34315 40.5 6 41.8431 6 43.5V48C6 49.6569 7.34315 51 9 51H16.5C18.1569 51 19.5 49.6569 19.5 48V43.5C19.5 41.8431 18.1569 40.5 16.5 40.5ZM9 48V43.5H16.5V48H9Z" fill="#FF8401"/>
<path d="M33 40.5H25.5C23.8431 40.5 22.5 41.8431 22.5 43.5V48C22.5 49.6569 23.8431 51 25.5 51H33C34.6569 51 36 49.6569 36 48V43.5C36 41.8431 34.6569 40.5 33 40.5ZM25.5 48V43.5H33V48H25.5Z" fill="#FF8401"/>
<path d="M16.5 54H9C7.34315 54 6 55.3431 6 57V61.5C6 63.1569 7.34315 64.5 9 64.5H16.5C18.1569 64.5 19.5 63.1569 19.5 61.5V57C19.5 55.3431 18.1569 54 16.5 54ZM9 61.5V57H16.5V61.5H9Z" fill="#FF8401"/>
<path d="M33 54H25.5C23.8431 54 22.5 55.3431 22.5 57V61.5C22.5 63.1569 23.8431 64.5 25.5 64.5H33C34.6569 64.5 36 63.1569 36 61.5V57C36 55.3431 34.6569 54 33 54ZM25.5 61.5V57H33V61.5H25.5Z" fill="#FF8401"/>
<path d="M81.9 34.368C80.0529 32.6057 77.1471 32.6057 75.3 34.368L75 34.668V9C75 6.51472 72.9853 4.5 70.5 4.5H69C69 2.01472 66.9853 0 64.5 0C62.0147 0 60 2.01472 60 4.5H15C15 2.01472 12.9853 6e-08 10.5 6e-08C8.01472 6e-08 6 2.01472 6 4.5H4.5C2.01472 4.5 0 6.51472 0 9V67.5C0 69.9853 2.01472 72 4.5 72H37.9275L33.15 86.304C32.8118 87.3116 33.0732 88.4238 33.8247 89.1753C34.5762 89.9268 35.6884 90.1882 36.696 89.85L51.054 85.05V85.035C51.2753 84.9672 51.4777 84.8485 51.645 84.6885L85.2645 51.0675L88.632 47.7C90.4523 45.8765 90.4523 42.9235 88.632 41.1L81.9 34.368ZM40.0215 75.198L47.802 82.9785L44.262 84.162L38.838 78.738L40.0215 75.198ZM41.4915 72.4245L72.9915 40.9245L76.4775 44.4L44.9775 75.9L41.4915 72.4245ZM49.5 60.174L48.174 61.5H42V57H49.5V60.174ZM66 43.674L61.674 48H58.5V43.5H66V43.674ZM63 4.5C63 3.67157 63.6716 3 64.5 3C65.3284 3 66 3.67157 66 4.5V10.5C66 11.3284 65.3284 12 64.5 12C63.6716 12 63 11.3284 63 10.5V4.5ZM9 4.5C9 3.67157 9.67157 3 10.5 3C11.3284 3 12 3.67157 12 4.5V10.5C12 11.3284 11.3284 12 10.5 12C9.67157 12 9 11.3284 9 10.5V4.5ZM4.5 7.5H6V10.5C6 12.9853 8.01472 15 10.5 15C12.9853 15 15 12.9853 15 10.5V7.5H60V10.5C60 12.9853 62.0147 15 64.5 15C66.9853 15 69 12.9853 69 10.5V7.5H70.5C71.3284 7.5 72 8.17157 72 9V18H3V9C3 8.17157 3.67157 7.5 4.5 7.5ZM3 67.5V21H72V37.6695L71.937 37.731L68.199 41.475C67.6353 40.8558 66.8373 40.502 66 40.5H58.5C56.8431 40.5 55.5 41.8432 55.5 43.5V48C55.5 49.6569 56.8431 51 58.5 51H58.674L52.5 57.174V57C52.5 55.3432 51.1569 54 49.5 54H42C40.3431 54 39 55.3432 39 57V61.5C39 63.1569 40.3431 64.5 42 64.5H45.174L40.674 69H4.5C3.67157 69 3 68.3284 3 67.5ZM36.1155 86.8845L37.776 81.918L41.076 85.218L36.1155 86.8845ZM50.5785 81.5115L47.1 78.027L78.6 46.527L82.0845 50.0115L50.5785 81.5115ZM86.511 45.5775L84.2025 47.886L75.114 38.7975L77.4225 36.489C78.0834 35.8576 79.1241 35.8576 79.785 36.489L86.511 43.215C87.1631 43.8675 87.1631 44.925 86.511 45.5775V45.5775Z" fill="#FF8401"/>
</svg>
