<svg width="195" height="178" viewBox="0 0 195 178" fill="none" xmlns="http://www.w3.org/2000/svg">
<path d="M189.917 0H25.0833C11.2364 0.015747 0.015747 11.2364 0 25.0833V189.917C0.015747 203.764 11.2364 214.984 25.0833 215H189.917C203.764 214.984 214.984 203.764 215 189.917V25.0833C214.984 11.2364 203.764 0.015747 189.917 0ZM25.0833 7.16667H103.917V103.917H7.16667V25.0833C7.17891 15.1924 15.1924 7.17891 25.0833 7.16667ZM7.16667 189.917V111.083H103.917V207.833H25.0833C15.1924 207.821 7.17891 199.808 7.16667 189.917ZM207.833 189.917C207.821 199.808 199.808 207.821 189.917 207.833H111.083V7.16667H189.917C199.808 7.17891 207.821 15.1924 207.833 25.0833V189.917Z" fill="#FF8401"/>
<path d="M39.4163 57.3333H53.7497V71.6667C53.7497 73.6456 55.3541 75.25 57.333 75.25C59.3119 75.25 60.9163 73.6456 60.9163 71.6667V57.3333H75.2497C77.2286 57.3333 78.833 55.7289 78.833 53.75C78.833 51.7711 77.2286 50.1667 75.2497 50.1667H60.9163V35.8333C60.9163 33.8545 59.3119 32.25 57.333 32.25C55.3541 32.25 53.7497 33.8545 53.7497 35.8333V50.1667H39.4163C37.4375 50.1667 35.833 51.7711 35.833 53.75C35.833 55.7289 37.4375 57.3333 39.4163 57.3333Z" fill="#FF8401"/>
<path d="M75.2497 154.083H39.4163C37.4375 154.083 35.833 155.688 35.833 157.667C35.833 159.646 37.4375 161.25 39.4163 161.25H75.2497C77.2286 161.25 78.833 159.646 78.833 157.667C78.833 155.688 77.2286 154.083 75.2497 154.083Z" fill="#FF8401"/>
<path d="M182.75 93.1666H139.75C137.771 93.1666 136.167 94.7711 136.167 96.75C136.167 98.7288 137.771 100.333 139.75 100.333H182.75C184.729 100.333 186.334 98.7288 186.334 96.75C186.334 94.7711 184.729 93.1666 182.75 93.1666Z" fill="#FF8401"/>
<path d="M182.75 114.667H139.75C137.771 114.667 136.167 116.271 136.167 118.25C136.167 120.229 137.771 121.833 139.75 121.833H182.75C184.729 121.833 186.334 120.229 186.334 118.25C186.334 116.271 184.729 114.667 182.75 114.667Z" fill="#FF8401"/>
</svg>
