<svg width="34" height="33" viewBox="0 0 34 33" fill="none" xmlns="http://www.w3.org/2000/svg">
<circle cx="17" cy="16.5" r="16.5" fill="#2F89CE"/>
<path d="M8.21413 16.8087L12.0076 18.2232L13.4863 22.981C13.5506 23.3025 13.9364 23.3668 14.1936 23.1739L16.3153 21.4379C16.5082 21.245 16.8297 21.245 17.0869 21.4379L20.8803 24.2026C21.1375 24.3955 21.5233 24.2669 21.5875 23.9454L24.4165 10.4434C24.4808 10.1219 24.1594 9.80047 23.8379 9.92906L8.21413 15.9728C7.82836 16.1014 7.82836 16.6801 8.21413 16.8087ZM13.2935 17.5159L20.7517 12.9509C20.8803 12.8866 21.0089 13.0795 20.8803 13.1438L14.7723 18.8661C14.5794 19.059 14.3865 19.3162 14.3865 19.6376L14.1936 21.1807C14.1936 21.3736 13.8721 21.4379 13.8078 21.1807L13.0363 18.3517C12.8434 18.0303 12.972 17.6445 13.2935 17.5159Z" fill="white"/>
</svg>
