<svg width="147" height="44" viewBox="0 0 147 44" fill="none" xmlns="http://www.w3.org/2000/svg">
<g clip-path="url(#clip0_259_635)">
<path d="M14.2246 0V7.13009C17.9973 7.13009 21.6155 8.6288 24.2833 11.2965C26.951 13.9642 28.4497 17.5824 28.4497 21.3552C28.4497 25.1279 26.951 28.7461 24.2833 31.4138C21.6155 34.0815 17.9973 35.5802 14.2246 35.5802V42.6908C19.8832 42.6908 25.31 40.443 29.3112 36.4418C33.3124 32.4406 35.5603 27.0137 35.5603 21.3552C35.5603 15.6966 33.3124 10.2698 29.3112 6.26857C25.31 2.26736 19.8832 0.0195036 14.2246 0.0195036V0Z" fill="#FF8300"/>
<path d="M0 21.3358C0 25.1086 1.49871 28.7268 4.16643 31.3945C6.83415 34.0622 10.4524 35.5609 14.2251 35.5609V28.4503C12.3676 28.4068 10.6008 27.6384 9.30239 26.3092C8.00404 24.9801 7.27716 23.1958 7.27716 21.3378C7.27716 19.4797 8.00404 17.6954 9.30239 16.3663C10.6008 15.0372 12.3676 14.2687 14.2251 14.2252V7.13025C10.4557 7.13025 6.84048 8.62627 4.17332 11.2898C1.50616 13.9533 0.00516774 17.5665 0 21.3358Z" fill="#FF8300"/>
<path d="M21.3391 21.3357C21.3381 19.4495 20.588 17.6409 19.2539 16.3075C17.9198 14.9741 16.1108 14.2251 14.2246 14.2251V28.4502C16.1115 28.4502 17.9211 27.7006 19.2553 26.3664C20.5895 25.0322 21.3391 23.2226 21.3391 21.3357Z" fill="#FF8300"/>
<path d="M52.9877 36.4188H55.1993L50.7332 30.0728L54.8716 24.2064H52.6756L49.5592 28.5672L46.4427 24.2064H44.2818L48.4358 30.1391L48.3968 30.1937L43.9893 36.4188H46.1501L49.5592 31.6603L52.9877 36.4188Z" fill="white"/>
<path d="M67.5831 28.4852C67.5831 25.8485 65.6328 24.1947 62.4773 24.1947H57.6992V36.4071H59.5676V32.7524H62.4773C65.6289 32.7641 67.5831 31.1259 67.5831 28.4852ZM59.5676 31.122V25.8524H62.4266C64.5797 25.8524 65.7147 26.7612 65.7147 28.4852C65.7147 30.2093 64.5797 31.122 62.4266 31.122H59.5676Z" fill="white"/>
<path d="M77.4907 33.4038L78.8169 36.4188H80.7866L75.2402 24.2064H73.4381L67.9072 36.4188H69.8575L71.1875 33.4038H77.4907ZM74.3313 26.2152L76.8237 31.8787H71.8389L74.3313 26.2152Z" fill="white"/>
<path d="M93.6632 36.4188V24.2064H91.7948V29.3941H85.008V24.2064H83.1396V36.4188H85.008V31.0401H91.7948V36.4188H93.6632Z" fill="white"/>
<path d="M105.488 31.0245V29.4136H99.4347V25.8524H106.229V24.2064H97.5664V36.4188H106.471V34.7767H99.4347V31.0245H105.488Z" fill="white"/>
<path d="M119.822 36.4188V24.2064H117.954V29.3941H111.167V24.2064H109.299V36.4188H111.167V31.0401H117.954V36.4188H119.822Z" fill="white"/>
<path d="M134.303 36.4188V24.2064H132.606L125.577 33.3765V24.2064H123.725V36.4188H125.421L132.466 27.2683V36.4188H134.303Z" fill="white"/>
<path d="M147.322 36.4188V24.2064H142.408C139.354 24.2064 137.454 25.8992 137.454 28.6257C137.454 30.5135 138.351 31.8943 139.978 32.5262L140.087 32.5652L137.388 36.4266H139.4L141.811 32.9162H141.865C141.99 32.9162 142.111 32.9162 142.256 32.9162H145.509V36.4266L147.322 36.4188ZM142.373 31.3131C140.391 31.3131 139.342 30.3809 139.342 28.6101C139.342 26.8393 140.426 25.8563 142.462 25.8563H145.477V31.317L142.373 31.3131Z" fill="white"/>
<path d="M81.6717 18.6054V6.39293H79.819V12.1734L79.7644 12.2008C78.7509 12.6525 77.656 12.8928 76.5465 12.9067C74.5689 12.9067 73.4807 11.9433 73.4807 10.1764V6.38123H71.6475V10.3636C71.6475 13.0316 73.3637 14.5567 76.3593 14.5567C77.5009 14.5335 78.6296 14.3104 79.6942 13.8975L79.819 13.8507V18.5937L81.6717 18.6054Z" fill="white"/>
<path d="M93.7126 18.6053H95.8578L91.2865 12.306L95.6511 6.39282H93.6267L89.8316 11.6312H87.3899V6.39282H85.5566V18.6053H87.3899V13.2928H89.7965L93.7126 18.6053Z" fill="white"/>
<path d="M106.702 15.5863L108.028 18.6053H109.998L104.451 6.39282H102.649L97.1182 18.6053H99.0684L100.398 15.5863H106.702ZM103.542 8.40157L106.035 14.0651H101.05L103.542 8.40157Z" fill="white"/>
<path d="M55.2539 6.39282H44.0361V8.03493H48.7284L48.7206 18.6053H50.5538V8.03493H55.2539V6.39282Z" fill="white"/>
<path d="M61.8649 16.9787C60.822 16.7785 59.8814 16.2212 59.205 15.4025C58.5285 14.5839 58.1585 13.5551 58.1585 12.4932C58.1585 11.4312 58.5285 10.4025 59.205 9.58382C59.8814 8.76518 60.822 8.20783 61.8649 8.00761V6.3031C58.6587 6.73996 56.3184 9.25187 56.3184 12.4971C56.3184 15.7423 58.6587 18.262 61.8688 18.6793L61.8649 16.9787Z" fill="white"/>
<path d="M63.7295 6.31104V8.01555C64.769 8.21986 65.7053 8.77886 66.3783 9.59702C67.0513 10.4152 67.4193 11.4417 67.4193 12.5011C67.4193 13.5605 67.0513 14.587 66.3783 15.4052C65.7053 16.2234 64.769 16.7824 63.7295 16.9867V18.6873C65.2287 18.4876 66.6044 17.7503 67.6008 16.6125C68.5972 15.4746 69.1465 14.0136 69.1465 12.5011C69.1465 10.9886 68.5972 9.52764 67.6008 8.38976C66.6044 7.25189 65.2287 6.51458 63.7295 6.31494V6.31104Z" fill="white"/>
</g>
<defs>
<clipPath id="clip0_259_635">
<rect width="147" height="44" fill="white"/>
</clipPath>
</defs>
</svg>
