<svg width="214" height="62" viewBox="0 0 214 62" fill="none" xmlns="http://www.w3.org/2000/svg">
<g clip-path="url(#clip0_130_129)">
<path d="M20.6631 0V10.3572C26.1434 10.3572 31.3992 12.5343 35.2743 16.4094C39.1495 20.2845 41.3265 25.5404 41.3265 31.0206C41.3265 36.5009 39.1495 41.7568 35.2743 45.6319C31.3992 49.507 26.1434 51.6841 20.6631 51.6841V62.013C28.8828 62.013 36.7658 58.7477 42.578 52.9355C48.3902 47.1233 51.6554 39.2403 51.6554 31.0206C51.6554 22.801 48.3902 14.918 42.578 9.10577C36.7658 3.29358 28.8828 0.0283311 20.6631 0.0283311V0Z" fill="#FF8300"/>
<path d="M0 30.9924C0 36.4727 2.17703 41.7285 6.05218 45.6037C9.92733 49.4788 15.1832 51.6558 20.6634 51.6558V41.327C17.9652 41.2638 15.3987 40.1475 13.5127 38.2168C11.6267 36.2861 10.5708 33.6942 10.5708 30.9952C10.5708 28.2962 11.6267 25.7044 13.5127 23.7737C15.3987 21.843 17.9652 20.7267 20.6634 20.6635V10.3573C15.1881 10.3573 9.93652 12.5304 6.06219 16.3995C2.18785 20.2685 0.00750669 25.517 0 30.9924Z" fill="#FF8300"/>
<path d="M30.9976 30.9923C30.9961 28.2524 29.9067 25.6252 27.9687 23.6884C26.0308 21.7515 23.403 20.6635 20.6631 20.6635V41.3269C23.404 41.3269 26.0326 40.2381 27.9707 38.3C29.9088 36.3619 30.9976 33.7332 30.9976 30.9923Z" fill="#FF8300"/>
<path d="M76.9706 52.9023H80.1831L73.6957 43.6839L79.7072 35.1625H76.5173L71.9903 41.4969L67.4632 35.1625H64.3244L70.3585 43.7803L70.3019 43.8596L63.8994 52.9023H67.0383L71.9903 45.99L76.9706 52.9023Z" fill="#54565A"/>
<path d="M98.1718 41.3778C98.1718 37.5477 95.3388 35.1454 90.7551 35.1454H83.8145V52.8852H86.5284V47.5763H90.7551C95.3332 47.5933 98.1718 45.2136 98.1718 41.3778ZM86.5284 45.208V37.5534H90.6815C93.8091 37.5534 95.4578 38.8735 95.4578 41.3778C95.4578 43.8822 93.8091 45.208 90.6815 45.208H86.5284Z" fill="#54565A"/>
<path d="M112.564 48.5226L114.49 52.9023H117.351L109.294 35.1625H106.677L98.6426 52.9023H101.476L103.408 48.5226H112.564ZM107.974 38.0804L111.595 46.3073H104.354L107.974 38.0804Z" fill="#54565A"/>
<path d="M136.055 52.9023V35.1625H133.341V42.6981H123.483V35.1625H120.769V52.9023H123.483V45.0891H133.341V52.9023H136.055Z" fill="#54565A"/>
<path d="M153.233 45.0664V42.7264H144.44V37.5535H154.309V35.1625H141.726V52.9023H154.661V50.517H144.44V45.0664H153.233Z" fill="#54565A"/>
<path d="M174.055 52.9023V35.1625H171.341V42.6981H161.483V35.1625H158.769V52.9023H161.483V45.0891H171.341V52.9023H174.055Z" fill="#54565A"/>
<path d="M195.088 52.9023V35.1625H192.623L182.413 48.4829V35.1625H179.722V52.9023H182.186L192.419 39.6102V52.9023H195.088Z" fill="#54565A"/>
<path d="M214 52.9023V35.1625H206.861C202.425 35.1625 199.666 37.6215 199.666 41.5819C199.666 44.3242 200.969 46.3299 203.331 47.2478L203.49 47.3044L199.569 52.9136H202.493L205.994 47.8144H206.074C206.255 47.8144 206.431 47.8144 206.64 47.8144H211.366V52.9136L214 52.9023ZM206.81 45.4857C203.932 45.4857 202.408 44.1316 202.408 41.5592C202.408 38.9869 203.983 37.5591 206.941 37.5591H211.32V45.4914L206.81 45.4857Z" fill="#54565A"/>
<path d="M118.638 27.0263V9.28641H115.947V17.6832L115.868 17.7229C114.396 18.3791 112.805 18.7281 111.193 18.7484C108.321 18.7484 106.74 17.3489 106.74 14.7823V9.26941H104.077V15.0543C104.077 18.9297 106.57 21.1451 110.922 21.1451C112.58 21.1114 114.219 20.7873 115.766 20.1875L115.947 20.1196V27.0093L118.638 27.0263Z" fill="#54565A"/>
<path d="M136.128 27.0261H139.244L132.603 17.8757L138.944 9.28625H136.003L130.49 16.8955H126.943V9.28625H124.28V27.0261H126.943V19.3092H130.439L136.128 27.0261Z" fill="#54565A"/>
<path d="M154.996 22.6407L156.923 27.0261H159.784L151.727 9.28625H149.109L141.075 27.0261H143.908L145.84 22.6407H154.996ZM150.407 12.2042L154.027 20.431H146.786L150.407 12.2042Z" fill="#54565A"/>
<path d="M80.2628 9.28625H63.9678V11.6716H70.7838L70.7725 27.0261H73.4354V11.6716H80.2628V9.28625Z" fill="#54565A"/>
<path d="M89.8655 24.6635C88.3505 24.3727 86.9843 23.563 86.0017 22.3739C85.0191 21.1847 84.4816 19.6903 84.4816 18.1477C84.4816 16.6052 85.0191 15.1108 86.0017 13.9216C86.9843 12.7324 88.3505 11.9228 89.8655 11.632V9.15601C85.2081 9.79058 81.8086 13.4394 81.8086 18.1534C81.8086 22.8674 85.2081 26.5276 89.8711 27.1338L89.8655 24.6635Z" fill="#54565A"/>
<path d="M92.5742 9.16748V11.6435C94.0842 11.9402 95.4443 12.7523 96.4219 13.9407C97.3995 15.1292 97.934 16.6203 97.934 18.1592C97.934 19.6981 97.3995 21.1893 96.4219 22.3777C95.4443 23.5662 94.0842 24.3782 92.5742 24.675V27.1453C94.752 26.8553 96.7504 25.7843 98.1978 24.1314C99.6451 22.4785 100.443 20.3562 100.443 18.1592C100.443 15.9622 99.6451 13.8399 98.1978 12.1871C96.7504 10.5342 94.752 9.46315 92.5742 9.17315V9.16748Z" fill="#54565A"/>
</g>
<defs>
<clipPath id="clip0_130_129">
<rect width="214" height="62" fill="white"/>
</clipPath>
</defs>
</svg>
