<?xml version="1.0" encoding="UTF-8"?> <svg xmlns="http://www.w3.org/2000/svg" width="60" height="68" viewBox="0 0 60 68" fill="none"> <g filter="url(#filter0_d)"> <path d="M30.5107 56.5229C30.4984 56.7898 30.2785 57 30.0112 57C29.7215 56.9999 29.5015 56.7897 29.4893 56.5228C29.3446 53.3546 27.7341 51.3058 24.6577 50.3763C14.5314 47.9677 7 38.8634 7 28C7 15.2975 17.2975 5 30 5C42.7025 5 53 15.2975 53 28C53 38.8634 45.4686 47.9677 35.3423 50.3763C32.2659 51.3058 30.6553 53.3546 30.5107 56.5229Z" fill="#FF4433"></path> </g> <path d="M30 68C27.7909 68 26 66.2091 26 64C26 61.7909 27.7909 60 30 60C32.2091 60 34 61.7909 34 64C34 66.2091 32.2091 68 30 68Z" fill="white"></path> <path fill-rule="evenodd" clip-rule="evenodd" d="M30 66C31.1046 66 32 65.1046 32 64C32 62.8954 31.1046 62 30 62C28.8954 62 28 62.8954 28 64C28 65.1046 28.8954 66 30 66Z" fill="#FF4433"></path> <path fill-rule="evenodd" clip-rule="evenodd" d="M28 34.2V39H39.4C39.7314 39 40 38.7314 40 38.4V24.6C40 24.2686 39.7314 24 39.4 24H34.4464L34.2883 26H38V27H34.2092L34.051 29H38V30H33.9719L33.599 34.7155C33.5855 34.886 33.4407 35.0129 33.2756 34.999C33.1199 34.9858 33 34.8516 33 34.6903V18.4C33 18.1791 32.8209 18 32.6 18H32V17.4C32 17.1791 31.8209 17 31.6 17H21.4C21.1791 17 21 17.1791 21 17.4V18H20.4C20.1791 18 20 18.1791 20 18.4V38.4C20 38.7314 20.2686 39 20.6 39H25V34.2C25 34.0895 25.0895 34 25.2 34H27.8C27.9105 34 28 34.0895 28 34.2ZM23.5 31V25H25.5V31H23.5ZM27.5 25V31H29.5V25H27.5ZM23.5 23V20H25.5V23H23.5ZM27.5 20V23H29.5V20H27.5ZM35 33V32H38V33H35Z" fill="white"></path> <path d="M34.5255 23L34.6046 22H37.6C37.8209 22 38 22.1791 38 22.4V23H34.5255Z" fill="white"></path> <defs> <filter id="filter0_d" x="1" y="1" width="58" height="64" filterUnits="userSpaceOnUse" color-interpolation-filters="sRGB"> <feFlood flood-opacity="0" result="BackgroundImageFix"></feFlood> <feColorMatrix in="SourceAlpha" type="matrix" values="0 0 0 0 0 0 0 0 0 0 0 0 0 0 0 0 0 0 127 0"></feColorMatrix> <feOffset dy="2"></feOffset> <feGaussianBlur stdDeviation="3"></feGaussianBlur> <feColorMatrix type="matrix" values="0 0 0 0 0.882353 0 0 0 0 0.282353 0 0 0 0 0.227451 0 0 0 0.6 0"></feColorMatrix> <feBlend mode="normal" in2="BackgroundImageFix" result="effect1_dropShadow"></feBlend> <feBlend mode="normal" in="SourceGraphic" in2="effect1_dropShadow" result="shape"></feBlend> </filter> </defs> </svg> 